<svg width="410" height="410" viewBox="0 0 410 410" fill="none" xmlns="http://www.w3.org/2000/svg">
<path d="M37.4384 167.387L70.3998 163.452L45.3558 141.663L78.5272 142.932L57.2 117.494L89.7644 123.937L72.6792 95.4756L103.835 106.933L91.4122 76.1496L120.392 92.3399L112.938 59.992L139.028 80.5165L136.726 47.4008L159.284 71.7539L162.191 38.6858L180.662 66.268L188.706 34.0618L202.635 64.1939L215.618 33.6426L224.661 65.5826L242.264 37.4384L246.199 70.3999L267.988 45.3559L266.719 78.5272L292.157 57.2L285.714 89.7644L314.176 72.6792L302.718 103.835L333.502 91.4123L317.311 120.392L349.659 112.938L329.135 139.028L362.25 136.726L337.897 159.284L370.965 162.191L343.383 180.662L375.589 188.706L345.457 202.635L376.009 215.618L344.069 224.661L372.213 242.264L339.251 246.2L364.295 267.988L331.124 266.719L352.451 292.157L319.887 285.714L336.972 314.176L305.816 302.718L318.239 333.502L289.259 317.311L296.713 349.659L270.623 329.135L272.925 362.25L250.367 337.897L247.46 370.965L228.989 343.383L220.945 375.589L207.016 345.457L194.033 376.009L184.99 344.069L167.387 372.213L163.452 339.251L141.663 364.295L142.932 331.124L117.494 352.451L123.937 319.887L95.4755 336.972L106.933 305.816L76.1496 318.239L92.3399 289.259L59.992 296.713L80.5164 270.623L47.4008 272.925L71.7539 250.367L38.6858 247.46L66.268 228.989L34.0618 220.945L64.1939 207.016L33.6425 194.033L65.5825 184.99L37.4384 167.387Z" fill="#B91117"/>
<path d="M103.779 220.16L112.341 252.459L106.419 254.029L99.1737 226.699L88.8586 229.434L96.1034 256.763L90.1806 258.333L81.6185 226.035L103.779 220.16ZM135.418 226.303L136.858 231.738C137.462 234.016 137.725 236.083 137.647 237.939C137.57 239.796 137.181 241.434 136.481 242.854C135.777 244.26 134.8 245.437 133.548 246.386C132.296 247.335 130.819 248.035 129.118 248.486C127.403 248.941 125.766 249.066 124.209 248.862C122.651 248.657 121.211 248.121 119.888 247.253C118.577 246.366 117.413 245.139 116.396 243.573C115.394 242.002 114.591 240.078 113.988 237.801L112.547 232.366C111.931 230.044 111.666 227.938 111.751 226.048C111.835 224.158 112.225 222.496 112.921 221.061C113.632 219.622 114.611 218.42 115.859 217.456C117.104 216.478 118.576 215.763 120.277 215.312C121.992 214.857 123.625 214.749 125.176 214.987C126.738 215.206 128.177 215.766 129.492 216.668C130.822 217.566 131.985 218.817 132.98 220.421C133.989 222.021 134.802 223.981 135.418 226.303ZM130.958 233.302L129.505 227.823C129.086 226.241 128.607 224.912 128.068 223.836C127.53 222.76 126.93 221.929 126.268 221.345C125.603 220.746 124.878 220.368 124.092 220.212C123.322 220.053 122.493 220.09 121.606 220.325C120.704 220.565 119.95 220.946 119.345 221.471C118.755 221.991 118.32 222.677 118.038 223.527C117.768 224.358 117.666 225.374 117.731 226.576C117.796 227.777 118.039 229.169 118.458 230.752L119.91 236.231C120.322 237.784 120.793 239.083 121.324 240.13C121.855 241.176 122.449 241.984 123.106 242.554C123.778 243.119 124.5 243.482 125.27 243.642C126.052 243.783 126.893 243.734 127.795 243.495C128.683 243.26 129.423 242.889 130.017 242.384C130.622 241.859 131.062 241.189 131.336 240.372C131.625 239.552 131.733 238.557 131.661 237.389C131.604 236.217 131.369 234.855 130.958 233.302ZM165.09 233.181L166.401 238.128L147.102 243.244L145.791 238.297L165.09 233.181ZM147.344 237.885L150.76 250.774L145.126 252.267L141.421 239.456L147.344 237.885ZM169.527 232.005L172.5 245.011L166.998 246.469L163.582 233.581L169.527 232.005ZM154.401 206.741L155.718 211.71L142.985 215.085L141.668 210.116L154.401 206.741ZM158.815 205.571L167.377 237.869L161.477 239.433L152.915 207.135L158.815 205.571ZM140.714 210.369L146.659 208.793L149.398 222.17C149.859 224.327 150.176 226.269 150.349 227.996C150.536 229.719 150.607 231.267 150.559 232.641C150.512 234.015 150.379 235.245 150.161 236.332C149.957 237.414 149.681 238.374 149.333 239.21C148.985 240.046 148.6 240.805 148.179 241.486C147.755 242.153 147.314 242.76 146.858 243.309L143.753 244.132L142.441 239.185L143.661 238.862C143.918 238.398 144.147 237.799 144.348 237.065C144.56 236.312 144.686 235.353 144.725 234.187C144.764 233.022 144.692 231.585 144.508 229.876C144.324 228.168 143.98 226.123 143.475 223.74L140.714 210.369ZM179.179 205.633L179.001 234.788L172.746 236.446L174.366 201.448L178.27 200.413L179.179 205.633ZM192.222 231.283L177.626 206.045L175.763 201.078L179.712 200.031L198.5 229.619L192.222 231.283ZM189.235 219.207L190.546 224.154L175.728 228.082L174.417 223.135L189.235 219.207ZM209.649 214.175L202.927 215.957L201.61 210.988L208.309 209.212C209.344 208.938 210.116 208.504 210.623 207.91C211.141 207.298 211.437 206.563 211.51 205.704C211.598 204.842 211.511 203.916 211.248 202.925C210.994 201.964 210.607 201.101 210.087 200.336C209.579 199.553 208.938 198.987 208.165 198.638C207.407 198.285 206.517 198.243 205.497 198.514L200.572 199.819L207.817 227.149L201.894 228.719L193.332 196.421L204.18 193.545C206.324 192.977 208.285 192.94 210.062 193.434C211.839 193.928 213.344 194.859 214.577 196.226C215.821 197.574 216.711 199.261 217.248 201.287C217.801 203.372 217.865 205.286 217.441 207.029C217.013 208.757 216.139 210.239 214.821 211.475C213.517 212.707 211.793 213.607 209.649 214.175ZM232.843 208.169L233.705 185.718L240.161 184.007L238.138 212.558C238.029 213.521 237.873 214.457 237.671 215.365C237.479 216.255 237.185 217.085 236.788 217.855C236.405 218.621 235.869 219.285 235.179 219.848C234.486 220.396 233.584 220.817 232.475 221.111C232.194 221.185 231.843 221.263 231.421 221.343C231.003 221.438 230.681 221.507 230.455 221.551L229.077 216.622C229.233 216.613 229.49 216.568 229.849 216.489C230.223 216.406 230.476 216.346 230.609 216.311C231.304 216.127 231.796 215.862 232.084 215.516C232.383 215.152 232.574 214.706 232.655 214.178C232.737 213.65 232.771 213.063 232.758 212.417L232.843 208.169ZM223.856 188.329L233.923 203.467L237.442 209.846L232.969 211.151L217.467 190.023L223.856 188.329ZM265.328 191.533L266.639 196.48L253.218 200.037L251.907 195.091L265.328 191.533ZM249.943 181.413L258.505 213.712L252.56 215.288L243.998 182.989L249.943 181.413ZM266.27 177.085L274.832 209.384L268.931 210.948L260.369 178.65L266.27 177.085ZM297.842 183.246L299.282 188.681C299.886 190.958 300.149 193.025 300.071 194.882C299.994 196.739 299.605 198.377 298.905 199.797C298.201 201.202 297.224 202.38 295.972 203.329C294.72 204.278 293.243 204.978 291.542 205.429C289.827 205.884 288.19 206.009 286.633 205.805C285.075 205.6 283.635 205.064 282.312 204.196C281.001 203.309 279.837 202.082 278.82 200.516C277.818 198.945 277.015 197.021 276.412 194.744L274.971 189.309C274.355 186.987 274.09 184.881 274.175 182.991C274.259 181.101 274.649 179.438 275.345 178.003C276.056 176.565 277.035 175.363 278.284 174.399C279.528 173.42 281 172.706 282.701 172.255C284.416 171.8 286.049 171.692 287.6 171.929C289.162 172.149 290.601 172.709 291.916 173.611C293.246 174.508 294.409 175.759 295.404 177.363C296.413 178.963 297.226 180.924 297.842 183.246ZM293.382 190.245L291.929 184.766C291.51 183.183 291.031 181.854 290.492 180.778C289.954 179.702 289.354 178.872 288.692 178.288C288.027 177.688 287.302 177.311 286.516 177.155C285.746 176.995 284.917 177.033 284.03 177.268C283.128 177.507 282.374 177.889 281.769 178.414C281.179 178.934 280.744 179.619 280.462 180.469C280.192 181.301 280.09 182.317 280.155 183.519C280.22 184.72 280.463 186.112 280.882 187.694L282.334 193.174C282.746 194.726 283.217 196.026 283.748 197.072C284.279 198.119 284.873 198.927 285.53 199.497C286.202 200.062 286.924 200.425 287.694 200.585C288.476 200.726 289.317 200.677 290.219 200.438C291.107 200.202 291.847 199.832 292.441 199.326C293.046 198.802 293.486 198.131 293.76 197.315C294.049 196.494 294.157 195.5 294.085 194.332C294.028 193.16 293.793 191.798 293.382 190.245ZM305.379 166.718L313.941 199.016L308.018 200.587L299.456 168.288L305.379 166.718ZM321.328 162.49L315.877 184.021L308.845 185.885L306.554 180.557L311.146 179.339L314.096 164.407L321.328 162.49ZM323.657 196.441L312.507 183.846L315.232 178.185L330.755 194.559L323.657 196.441Z" fill="white"/>
</svg>
