<svg width="200" height="200" viewBox="0 0 200 200" fill="none" xmlns="http://www.w3.org/2000/svg">
<path d="M28.5718 37.5014C28.5718 31.3446 31.0176 25.4399 35.3711 21.0864C39.7246 16.7329 45.6292 14.2871 51.7861 14.2871H148.215C154.371 14.2871 160.276 16.7329 164.63 21.0864C168.983 25.4399 171.429 31.3446 171.429 37.5014V124.137C170.572 124.709 169.75 125.38 168.993 126.137L160.715 134.416V37.5014C160.715 34.1862 159.398 31.0068 157.053 28.6626C154.709 26.3184 151.53 25.0014 148.215 25.0014H51.7861C48.4709 25.0014 45.2914 26.3184 42.9472 28.6626C40.603 31.0068 39.2861 34.1862 39.2861 37.5014V162.501C39.2861 169.401 44.8861 175.001 51.7861 175.001H109.415L120.129 185.716H51.7861C45.6292 185.716 39.7246 183.27 35.3711 178.916C31.0176 174.563 28.5718 168.658 28.5718 162.501V37.5014ZM75.0003 62.5014C75.0003 64.8694 74.0597 67.1404 72.3852 68.8148C70.7108 70.4893 68.4398 71.43 66.0718 71.43C63.7038 71.43 61.4328 70.4893 59.7583 68.8148C58.0839 67.1404 57.1432 64.8694 57.1432 62.5014C57.1432 60.1334 58.0839 57.8624 59.7583 56.1879C61.4328 54.5135 63.7038 53.5728 66.0718 53.5728C68.4398 53.5728 70.7108 54.5135 72.3852 56.1879C74.0597 57.8624 75.0003 60.1334 75.0003 62.5014ZM66.0718 108.93C68.4398 108.93 70.7108 107.989 72.3852 106.315C74.0597 104.64 75.0003 102.369 75.0003 100.001C75.0003 97.6334 74.0597 95.3624 72.3852 93.6879C70.7108 92.0135 68.4398 91.0728 66.0718 91.0728C63.7038 91.0728 61.4328 92.0135 59.7583 93.6879C58.0839 95.3624 57.1432 97.6334 57.1432 100.001C57.1432 102.369 58.0839 104.64 59.7583 106.315C61.4328 107.989 63.7038 108.93 66.0718 108.93ZM66.0718 146.43C68.4398 146.43 70.7108 145.489 72.3852 143.815C74.0597 142.14 75.0003 139.869 75.0003 137.501C75.0003 135.133 74.0597 132.862 72.3852 131.188C70.7108 129.514 68.4398 128.573 66.0718 128.573C63.7038 128.573 61.4328 129.514 59.7583 131.188C58.0839 132.862 57.1432 135.133 57.1432 137.501C57.1432 139.869 58.0839 142.14 59.7583 143.815C61.4328 145.489 63.7038 146.43 66.0718 146.43ZM91.0718 57.1443C89.651 57.1443 88.2884 57.7087 87.2837 58.7133C86.279 59.718 85.7146 61.0806 85.7146 62.5014C85.7146 63.9222 86.279 65.2848 87.2837 66.2895C88.2884 67.2941 89.651 67.8585 91.0718 67.8585H137.5C138.921 67.8585 140.284 67.2941 141.288 66.2895C142.293 65.2848 142.857 63.9222 142.857 62.5014C142.857 61.0806 142.293 59.718 141.288 58.7133C140.284 57.7087 138.921 57.1443 137.5 57.1443H91.0718ZM85.7146 100.001C85.7146 98.5806 86.279 97.218 87.2837 96.2133C88.2884 95.2087 89.651 94.6442 91.0718 94.6442H137.5C138.921 94.6442 140.284 95.2087 141.288 96.2133C142.293 97.218 142.857 98.5806 142.857 100.001C142.857 101.422 142.293 102.785 141.288 103.789C140.284 104.794 138.921 105.359 137.5 105.359H91.0718C89.651 105.359 88.2884 104.794 87.2837 103.789C86.279 102.785 85.7146 101.422 85.7146 100.001ZM91.0718 132.144C89.651 132.144 88.2884 132.709 87.2837 133.713C86.279 134.718 85.7146 136.081 85.7146 137.501C85.7146 138.922 86.279 140.285 87.2837 141.289C88.2884 142.294 89.651 142.859 91.0718 142.859H137.5C138.921 142.859 140.284 142.294 141.288 141.289C142.293 140.285 142.857 138.922 142.857 137.501C142.857 136.081 142.293 134.718 141.288 133.713C140.284 132.709 138.921 132.144 137.5 132.144H91.0718ZM184.143 141.287L141.286 184.144C140.282 185.147 138.92 185.711 137.5 185.711C136.081 185.711 134.719 185.147 133.715 184.144L112.3 162.73C111.354 161.714 110.839 160.371 110.863 158.983C110.888 157.596 111.45 156.271 112.432 155.29C113.413 154.308 114.737 153.746 116.125 153.722C117.513 153.697 118.856 154.212 119.872 155.159L137.5 172.78L176.572 133.709C177.066 133.197 177.658 132.789 178.311 132.509C178.965 132.228 179.668 132.081 180.379 132.075C181.091 132.069 181.796 132.205 182.454 132.475C183.112 132.744 183.71 133.143 184.213 133.646C184.716 134.149 185.113 134.747 185.382 135.406C185.652 136.064 185.787 136.77 185.78 137.481C185.774 138.192 185.626 138.895 185.345 139.549C185.063 140.202 184.655 140.793 184.143 141.287Z" fill="#F38A21"/>
</svg>
