<svg width="200" height="200" viewBox="0 0 200 200" fill="none" xmlns="http://www.w3.org/2000/svg">
<path d="M100 16.668C54.0503 16.668 16.667 54.0513 16.667 100.001V134.526C16.667 143.06 24.142 150.001 33.3337 150.001H41.667C43.8771 150.001 45.9967 149.123 47.5595 147.561C49.1223 145.998 50.0003 143.878 50.0003 141.668V98.8096C50.0003 96.5995 49.1223 94.4799 47.5595 92.9171C45.9967 91.3543 43.8771 90.4763 41.667 90.4763H34.1003C38.7337 58.2263 66.4837 33.3346 100 33.3346C133.517 33.3346 161.267 58.2263 165.9 90.4763H158.334C156.124 90.4763 154.004 91.3543 152.441 92.9171C150.878 94.4799 150 96.5995 150 98.8096V150.001C150 159.193 142.525 166.668 133.334 166.668H116.667V158.335H83.3337V183.335H133.334C151.717 183.335 166.667 168.385 166.667 150.001C175.859 150.001 183.334 143.06 183.334 134.526V100.001C183.334 54.0513 145.95 16.668 100 16.668Z" fill="#F38A21"/>
</svg>
