<svg width="200" height="200" viewBox="0 0 200 200" fill="none" xmlns="http://www.w3.org/2000/svg">
<path d="M150 154.167C156.917 154.167 162.5 148.584 162.5 141.667C162.5 134.751 156.917 129.167 150 129.167C143.083 129.167 137.5 134.751 137.5 141.667C137.5 148.584 143.083 154.167 150 154.167ZM162.5 79.1673H141.667V100.001H178.833L162.5 79.1673ZM50.0002 154.167C56.9168 154.167 62.5002 148.584 62.5002 141.667C62.5002 134.751 56.9168 129.167 50.0002 129.167C43.0835 129.167 37.5002 134.751 37.5002 141.667C37.5002 148.584 43.0835 154.167 50.0002 154.167ZM166.667 66.6673L191.667 100.001V141.667H175C175 155.501 163.833 166.667 150 166.667C136.167 166.667 125 155.501 125 141.667H75.0002C75.0002 155.501 63.8335 166.667 50.0002 166.667C36.1668 166.667 25.0002 155.501 25.0002 141.667H8.3335V50.0007C8.3335 40.7507 15.7502 33.334 25.0002 33.334H141.667V66.6673H166.667ZM25.0002 50.0007V125.001H31.3335C35.9168 119.917 42.5835 116.667 50.0002 116.667C57.4168 116.667 64.0835 119.917 68.6668 125.001H125V50.0007H25.0002ZM83.3335 58.334L112.5 87.5006L83.3335 116.667V95.834H41.6668V79.1673H83.3335V58.334Z" fill="#F38A21"/>
</svg>
