<svg width="68" height="119" viewBox="0 0 68 119" fill="none" xmlns="http://www.w3.org/2000/svg">
<path d="M38.5 5C38.5 2.51472 36.4853 0.5 34 0.5C31.5147 0.5 29.5 2.51472 29.5 5H38.5ZM30.818 117.182C32.5754 118.939 35.4246 118.939 37.182 117.182L65.8198 88.5442C67.5772 86.7868 67.5772 83.9376 65.8198 82.1802C64.0624 80.4228 61.2132 80.4228 59.4558 82.1802L34 107.636L8.54416 82.1802C6.7868 80.4228 3.93755 80.4228 2.18019 82.1802C0.422836 83.9376 0.422836 86.7868 2.18019 88.5442L30.818 117.182ZM29.5 5L29.5 114H38.5L38.5 5H29.5Z" fill="#F38A21"/>
</svg>
