<svg width="100" height="100" viewBox="0 0 100 100" fill="none" xmlns="http://www.w3.org/2000/svg">
<g clip-path="url(#clip0_42_600)">
<path d="M70.3188 0.424831C70.9305 0.779445 71.4039 1.33102 71.6616 1.98944C71.9193 2.64786 71.946 3.37421 71.7376 4.04983L60.4813 40.6248H81.2501C81.8604 40.6245 82.4575 40.803 82.9675 41.1382C83.4776 41.4734 83.8783 41.9506 84.1203 42.511C84.3622 43.0713 84.4348 43.6902 84.329 44.2913C84.2233 44.8925 83.9438 45.4494 83.5251 45.8935L33.525 99.0185C33.0412 99.5329 32.3975 99.8683 31.6986 99.97C30.9998 100.072 30.2871 99.9338 29.6767 99.5786C29.0664 99.2234 28.5943 98.6719 28.3375 98.014C28.0807 97.3562 28.0542 96.6307 28.2625 95.956L39.5188 59.3748H18.75C18.1397 59.375 17.5426 59.1965 17.0326 58.8613C16.5225 58.5261 16.1218 58.0489 15.8798 57.4886C15.6379 56.9282 15.5653 56.3093 15.6711 55.7082C15.7768 55.1071 16.0563 54.5501 16.475 54.106L66.4751 0.98108C66.9583 0.467325 67.6011 0.132135 68.2989 0.0300096C68.9968 -0.0721156 69.7087 0.0648303 70.3188 0.418581V0.424831Z" fill="#F38A21"/>
</g>
<defs>
<clipPath id="clip0_42_600">
<rect width="100" height="100" fill="white"/>
</clipPath>
</defs>
</svg>
