<svg width="124" height="124" viewBox="0 0 124 124" fill="none" xmlns="http://www.w3.org/2000/svg">
<path d="M62.0002 113.666C54.8529 113.666 48.1363 112.309 41.8502 109.595C35.5641 106.884 30.096 103.204 25.446 98.5538C20.796 93.9038 17.1156 88.4358 14.4048 82.1497C11.6906 75.8636 10.3335 69.1469 10.3335 61.9997C10.3335 54.8525 11.6906 48.1358 14.4048 41.8497C17.1156 35.5636 20.796 30.0955 25.446 25.4455C30.096 20.7955 35.5641 17.1134 41.8502 14.3992C48.1363 11.6884 54.8529 10.333 62.0002 10.333C69.1474 10.333 75.8641 11.6884 82.1502 14.3992C88.4363 17.1134 93.9043 20.7955 98.5543 25.4455C103.204 30.0955 106.885 35.5636 109.596 41.8497C112.31 48.1358 113.667 54.8525 113.667 61.9997C113.667 69.1469 112.31 75.8636 109.596 82.1497C106.885 88.4358 103.204 93.9038 98.5543 98.5538C93.9043 103.204 88.4363 106.884 82.1502 109.595C75.8641 112.309 69.1474 113.666 62.0002 113.666ZM32.6793 32.6788L62.0002 61.9997V20.6663C56.4891 20.6663 51.1932 21.6997 46.1127 23.7663C41.0321 25.833 36.5543 28.8038 32.6793 32.6788Z" fill="#F38A21"/>
</svg>
