<svg width="124" height="124" viewBox="0 0 124 124" fill="none" xmlns="http://www.w3.org/2000/svg">
<g clip-path="url(#clip0_42_610)">
<path fill-rule="evenodd" clip-rule="evenodd" d="M58.373 11.341C60.7116 10.4644 63.2884 10.4644 65.627 11.341L101.794 24.9035C103.764 25.642 105.461 26.9643 106.66 28.6936C107.858 30.4229 108.5 32.4768 108.5 34.5807V62.2896C108.5 70.9253 106.096 79.3904 101.556 86.7364C97.0157 94.0825 90.5198 100.019 82.7958 103.881L65.4668 112.546C64.3905 113.084 63.2035 113.364 62 113.364C60.7965 113.364 59.6095 113.084 58.5332 112.546L41.2042 103.881C33.4802 100.019 26.9843 94.0825 22.4444 86.7364C17.9044 79.3904 15.4998 70.9253 15.5 62.2896V34.5807C15.4997 32.4768 16.1417 30.4229 17.3401 28.6936C18.5385 26.9643 20.2362 25.642 22.2063 24.9035L58.373 11.341ZM62 21.0182L25.8333 34.5807V62.2896C25.8345 69.0055 27.7057 75.5885 31.2372 81.301C34.7688 87.0135 39.8211 91.6299 45.8283 94.6329L62 102.729V21.0182Z" fill="#F38A21"/>
</g>
<defs>
<clipPath id="clip0_42_610">
<rect width="124" height="124" fill="white"/>
</clipPath>
</defs>
</svg>
