<svg width="126" height="123" viewBox="0 0 126 123" fill="none" xmlns="http://www.w3.org/2000/svg">
<path d="M62.5 12.5C35.8333 12.5 12.5 33.9444 12.5 62.5C12.5 74.2777 16.6111 85.1111 23.4444 93.6666L12.5 104.667L20.3333 112.5L31.2778 101.556C40.1443 108.636 51.1531 112.495 62.5 112.5C75.2777 112.5 88.1111 107.611 97.8333 97.8333C102.49 93.2039 106.183 87.6981 108.701 81.6337C111.218 75.5692 112.509 69.0662 112.5 62.5V12.5H62.5ZM54.1666 90.2777L51.3889 87.5L65.2777 68.0555L37.5 65.2777L70.8333 34.7222L73.6111 37.5L59.7222 56.9444L87.5 59.7222L54.1666 90.2777Z" fill="#F38A21"/>
</svg>
