<svg width="53" height="53" viewBox="0 0 53 53" fill="none" xmlns="http://www.w3.org/2000/svg">
<g clip-path="url(#clip0_42_630)">
<path fill-rule="evenodd" clip-rule="evenodd" d="M23.0439 1.92523C23.3929 0.776472 24.3968 0 25.5269 0C26.6571 0 27.6576 0.776472 28.0066 1.92523L32.3842 16.313C32.5138 16.7349 32.7664 17.1036 33.1022 17.366C33.4412 17.6284 33.8501 17.7702 34.2656 17.7702L48.4488 17.7631C49.579 17.7631 50.5795 18.5396 50.9285 19.6883C51.2775 20.8335 50.8953 22.0887 49.9812 22.7978L38.5069 31.6865C38.1679 31.9488 37.9152 32.3176 37.7856 32.7395C37.656 33.1649 37.6593 33.6224 37.7856 34.0443L42.1732 48.4286C42.5222 49.5773 42.14 50.8324 41.2259 51.5415C40.3118 52.2506 39.072 52.2506 38.1579 51.5415L26.6903 42.6458C26.3513 42.3834 25.9457 42.2416 25.5269 42.2416C25.1081 42.2416 24.7026 42.3834 24.3635 42.6458L12.8926 51.5415C11.9785 52.2506 10.7419 52.2506 9.82783 51.5415C8.91042 50.8324 8.52826 49.5773 8.8806 48.4286L13.2649 34.0443C13.3945 33.6224 13.3945 33.1649 13.2649 32.7395C13.1386 32.3176 12.8859 31.9488 12.5469 31.6865L1.07265 22.7978C0.158561 22.0887 -0.227053 20.8335 0.121961 19.6883C0.4743 18.5396 1.47484 17.7631 2.60498 17.7631L16.7849 17.7702C17.2037 17.7702 17.6126 17.6284 17.9483 17.366C18.2874 17.1036 18.54 16.7349 18.6663 16.313L23.0439 1.92523Z" fill="#F6BB06"/>
</g>
<defs>
<clipPath id="clip0_42_630">
<rect width="52.3214" height="52.3214" fill="white"/>
</clipPath>
</defs>
</svg>
